<mxfile host="app.diagrams.net" modified="2024-05-31T01:09:37.121Z" agent="Mozilla/5.0 (Windows NT 10.0; Win64; x64) AppleWebKit/537.36 (KHTML, like Gecko) Chrome/125.0.0.0 Safari/537.36 Edg/125.0.0.0" etag="5ykHKjAt6mp0kAYVc7oc" version="24.4.10" type="device">
  <diagram name="Page-1" id="74e2e168-ea6b-b213-b513-2b3c1d86103e">
    <mxGraphModel dx="1806" dy="397" grid="1" gridSize="10" guides="1" tooltips="1" connect="1" arrows="1" fold="1" page="1" pageScale="1" pageWidth="1100" pageHeight="850" background="none" math="0" shadow="0">
      <root>
        <mxCell id="0" />
        <mxCell id="1" parent="0" />
        <mxCell id="5vqsMoD5N4-9U9bh5XhQ-1" style="edgeStyle=orthogonalEdgeStyle;rounded=0;orthogonalLoop=1;jettySize=auto;html=1;exitX=0.5;exitY=1;exitDx=0;exitDy=0;entryX=0.5;entryY=0;entryDx=0;entryDy=0;" edge="1" parent="1" source="Ci78ALk_LoohgUf3pwAm-1" target="Ci78ALk_LoohgUf3pwAm-2">
          <mxGeometry relative="1" as="geometry" />
        </mxCell>
        <mxCell id="Ci78ALk_LoohgUf3pwAm-1" value="quicksort(a,left,right)&lt;div&gt;開始&lt;/div&gt;" style="rounded=0;whiteSpace=wrap;html=1;" parent="1" vertex="1">
          <mxGeometry x="120" width="120" height="60" as="geometry" />
        </mxCell>
        <mxCell id="5vqsMoD5N4-9U9bh5XhQ-2" style="edgeStyle=orthogonalEdgeStyle;rounded=0;orthogonalLoop=1;jettySize=auto;html=1;exitX=0.5;exitY=1;exitDx=0;exitDy=0;entryX=0.5;entryY=0;entryDx=0;entryDy=0;" edge="1" parent="1" source="Ci78ALk_LoohgUf3pwAm-2" target="Ci78ALk_LoohgUf3pwAm-5">
          <mxGeometry relative="1" as="geometry" />
        </mxCell>
        <mxCell id="Ci78ALk_LoohgUf3pwAm-2" value="global looktime,swich" style="rounded=1;whiteSpace=wrap;html=1;" parent="1" vertex="1">
          <mxGeometry x="120" y="80" width="120" height="60" as="geometry" />
        </mxCell>
        <mxCell id="5vqsMoD5N4-9U9bh5XhQ-3" style="edgeStyle=orthogonalEdgeStyle;rounded=0;orthogonalLoop=1;jettySize=auto;html=1;exitX=0.5;exitY=1;exitDx=0;exitDy=0;entryX=0.5;entryY=0;entryDx=0;entryDy=0;" edge="1" parent="1" source="Ci78ALk_LoohgUf3pwAm-5" target="Ci78ALk_LoohgUf3pwAm-6">
          <mxGeometry relative="1" as="geometry" />
        </mxCell>
        <mxCell id="Ci78ALk_LoohgUf3pwAm-5" value="if&lt;div&gt;left &amp;lt; right&lt;/div&gt;" style="rhombus;whiteSpace=wrap;html=1;" parent="1" vertex="1">
          <mxGeometry x="105" y="160" width="150" height="80" as="geometry" />
        </mxCell>
        <mxCell id="5vqsMoD5N4-9U9bh5XhQ-4" style="edgeStyle=orthogonalEdgeStyle;rounded=0;orthogonalLoop=1;jettySize=auto;html=1;exitX=0.5;exitY=1;exitDx=0;exitDy=0;entryX=0.5;entryY=0;entryDx=0;entryDy=0;" edge="1" parent="1" source="Ci78ALk_LoohgUf3pwAm-6" target="Ci78ALk_LoohgUf3pwAm-7">
          <mxGeometry relative="1" as="geometry" />
        </mxCell>
        <mxCell id="Ci78ALk_LoohgUf3pwAm-6" value="i,j = left,right" style="rounded=1;whiteSpace=wrap;html=1;" parent="1" vertex="1">
          <mxGeometry x="120" y="260" width="120" height="60" as="geometry" />
        </mxCell>
        <mxCell id="5vqsMoD5N4-9U9bh5XhQ-5" style="edgeStyle=orthogonalEdgeStyle;rounded=0;orthogonalLoop=1;jettySize=auto;html=1;exitX=0.5;exitY=1;exitDx=0;exitDy=0;" edge="1" parent="1" source="Ci78ALk_LoohgUf3pwAm-7" target="Ci78ALk_LoohgUf3pwAm-9">
          <mxGeometry relative="1" as="geometry" />
        </mxCell>
        <mxCell id="Ci78ALk_LoohgUf3pwAm-7" value="x = a[(left+right)//2].score" style="rounded=1;whiteSpace=wrap;html=1;" parent="1" vertex="1">
          <mxGeometry x="120" y="340" width="120" height="60" as="geometry" />
        </mxCell>
        <mxCell id="5vqsMoD5N4-9U9bh5XhQ-6" style="edgeStyle=orthogonalEdgeStyle;rounded=0;orthogonalLoop=1;jettySize=auto;html=1;exitX=0.5;exitY=1;exitDx=0;exitDy=0;entryX=0.5;entryY=0;entryDx=0;entryDy=0;" edge="1" parent="1" source="Ci78ALk_LoohgUf3pwAm-9" target="Ci78ALk_LoohgUf3pwAm-10">
          <mxGeometry relative="1" as="geometry" />
        </mxCell>
        <mxCell id="5vqsMoD5N4-9U9bh5XhQ-7" style="edgeStyle=orthogonalEdgeStyle;rounded=0;orthogonalLoop=1;jettySize=auto;html=1;exitX=0.5;exitY=1;exitDx=0;exitDy=0;" edge="1" parent="1" source="Ci78ALk_LoohgUf3pwAm-9" target="Ci78ALk_LoohgUf3pwAm-14">
          <mxGeometry relative="1" as="geometry" />
        </mxCell>
        <mxCell id="Ci78ALk_LoohgUf3pwAm-9" value="while&lt;div&gt;True&lt;/div&gt;" style="rhombus;whiteSpace=wrap;html=1;" parent="1" vertex="1">
          <mxGeometry x="105" y="410" width="150" height="80" as="geometry" />
        </mxCell>
        <mxCell id="5vqsMoD5N4-9U9bh5XhQ-8" style="edgeStyle=orthogonalEdgeStyle;rounded=0;orthogonalLoop=1;jettySize=auto;html=1;exitX=0.5;exitY=1;exitDx=0;exitDy=0;entryX=0.5;entryY=0;entryDx=0;entryDy=0;" edge="1" parent="1" source="Ci78ALk_LoohgUf3pwAm-10" target="Ci78ALk_LoohgUf3pwAm-11">
          <mxGeometry relative="1" as="geometry" />
        </mxCell>
        <mxCell id="Ci78ALk_LoohgUf3pwAm-10" value="while&lt;div&gt;a[i].score&amp;lt;x&lt;/div&gt;" style="rhombus;whiteSpace=wrap;html=1;" parent="1" vertex="1">
          <mxGeometry x="-30" y="500" width="150" height="80" as="geometry" />
        </mxCell>
        <mxCell id="5vqsMoD5N4-9U9bh5XhQ-11" style="edgeStyle=orthogonalEdgeStyle;rounded=0;orthogonalLoop=1;jettySize=auto;html=1;exitX=0.5;exitY=1;exitDx=0;exitDy=0;entryX=0.5;entryY=0;entryDx=0;entryDy=0;" edge="1" parent="1" source="Ci78ALk_LoohgUf3pwAm-11" target="Ci78ALk_LoohgUf3pwAm-12">
          <mxGeometry relative="1" as="geometry" />
        </mxCell>
        <mxCell id="Ci78ALk_LoohgUf3pwAm-11" value="looktime += 1" style="rounded=1;whiteSpace=wrap;html=1;" parent="1" vertex="1">
          <mxGeometry x="-10" y="600" width="120" height="60" as="geometry" />
        </mxCell>
        <mxCell id="5vqsMoD5N4-9U9bh5XhQ-14" style="edgeStyle=orthogonalEdgeStyle;rounded=0;orthogonalLoop=1;jettySize=auto;html=1;exitX=0.5;exitY=1;exitDx=0;exitDy=0;entryX=0.5;entryY=0;entryDx=0;entryDy=0;" edge="1" parent="1" source="Ci78ALk_LoohgUf3pwAm-12" target="Ci78ALk_LoohgUf3pwAm-17">
          <mxGeometry relative="1" as="geometry" />
        </mxCell>
        <mxCell id="5vqsMoD5N4-9U9bh5XhQ-56" style="edgeStyle=orthogonalEdgeStyle;rounded=0;orthogonalLoop=1;jettySize=auto;html=1;exitX=0;exitY=0.5;exitDx=0;exitDy=0;entryX=0;entryY=0.5;entryDx=0;entryDy=0;" edge="1" parent="1" source="Ci78ALk_LoohgUf3pwAm-12" target="Ci78ALk_LoohgUf3pwAm-10">
          <mxGeometry relative="1" as="geometry" />
        </mxCell>
        <mxCell id="Ci78ALk_LoohgUf3pwAm-12" value="i += 1" style="rounded=1;whiteSpace=wrap;html=1;" parent="1" vertex="1">
          <mxGeometry x="-10" y="680" width="120" height="60" as="geometry" />
        </mxCell>
        <mxCell id="5vqsMoD5N4-9U9bh5XhQ-9" style="edgeStyle=orthogonalEdgeStyle;rounded=0;orthogonalLoop=1;jettySize=auto;html=1;exitX=0.5;exitY=1;exitDx=0;exitDy=0;entryX=0.5;entryY=0;entryDx=0;entryDy=0;" edge="1" parent="1" source="Ci78ALk_LoohgUf3pwAm-14" target="Ci78ALk_LoohgUf3pwAm-15">
          <mxGeometry relative="1" as="geometry" />
        </mxCell>
        <mxCell id="Ci78ALk_LoohgUf3pwAm-14" value="while&lt;div&gt;a[i].score&amp;gt;x&lt;/div&gt;" style="rhombus;whiteSpace=wrap;html=1;" parent="1" vertex="1">
          <mxGeometry x="240" y="500" width="150" height="80" as="geometry" />
        </mxCell>
        <mxCell id="5vqsMoD5N4-9U9bh5XhQ-10" style="edgeStyle=orthogonalEdgeStyle;rounded=0;orthogonalLoop=1;jettySize=auto;html=1;exitX=0.5;exitY=1;exitDx=0;exitDy=0;entryX=0.5;entryY=0;entryDx=0;entryDy=0;" edge="1" parent="1" source="Ci78ALk_LoohgUf3pwAm-15" target="Ci78ALk_LoohgUf3pwAm-16">
          <mxGeometry relative="1" as="geometry" />
        </mxCell>
        <mxCell id="Ci78ALk_LoohgUf3pwAm-15" value="looktime += 1" style="rounded=1;whiteSpace=wrap;html=1;" parent="1" vertex="1">
          <mxGeometry x="260" y="600" width="120" height="60" as="geometry" />
        </mxCell>
        <mxCell id="5vqsMoD5N4-9U9bh5XhQ-57" style="edgeStyle=orthogonalEdgeStyle;rounded=0;orthogonalLoop=1;jettySize=auto;html=1;exitX=1;exitY=0.5;exitDx=0;exitDy=0;entryX=1;entryY=0.5;entryDx=0;entryDy=0;" edge="1" parent="1" source="Ci78ALk_LoohgUf3pwAm-16" target="Ci78ALk_LoohgUf3pwAm-14">
          <mxGeometry relative="1" as="geometry" />
        </mxCell>
        <mxCell id="Ci78ALk_LoohgUf3pwAm-16" value="j -= 1" style="rounded=1;whiteSpace=wrap;html=1;" parent="1" vertex="1">
          <mxGeometry x="260" y="690" width="120" height="60" as="geometry" />
        </mxCell>
        <mxCell id="5vqsMoD5N4-9U9bh5XhQ-28" style="edgeStyle=orthogonalEdgeStyle;rounded=0;orthogonalLoop=1;jettySize=auto;html=1;exitX=0.5;exitY=1;exitDx=0;exitDy=0;entryX=0.5;entryY=0;entryDx=0;entryDy=0;" edge="1" parent="1" source="Ci78ALk_LoohgUf3pwAm-17" target="5vqsMoD5N4-9U9bh5XhQ-24">
          <mxGeometry relative="1" as="geometry" />
        </mxCell>
        <mxCell id="5vqsMoD5N4-9U9bh5XhQ-31" style="edgeStyle=orthogonalEdgeStyle;rounded=0;orthogonalLoop=1;jettySize=auto;html=1;exitX=1;exitY=0.5;exitDx=0;exitDy=0;entryX=0;entryY=0.5;entryDx=0;entryDy=0;" edge="1" parent="1" source="Ci78ALk_LoohgUf3pwAm-17" target="5vqsMoD5N4-9U9bh5XhQ-13">
          <mxGeometry relative="1" as="geometry" />
        </mxCell>
        <mxCell id="Ci78ALk_LoohgUf3pwAm-17" value="if&lt;div&gt;(i&amp;lt;=j)&lt;/div&gt;" style="rhombus;whiteSpace=wrap;html=1;" parent="1" vertex="1">
          <mxGeometry x="30" y="760" width="150" height="80" as="geometry" />
        </mxCell>
        <mxCell id="5vqsMoD5N4-9U9bh5XhQ-22" style="edgeStyle=orthogonalEdgeStyle;rounded=0;orthogonalLoop=1;jettySize=auto;html=1;exitX=0.5;exitY=1;exitDx=0;exitDy=0;" edge="1" parent="1" source="5vqsMoD5N4-9U9bh5XhQ-13" target="5vqsMoD5N4-9U9bh5XhQ-21">
          <mxGeometry relative="1" as="geometry" />
        </mxCell>
        <mxCell id="5vqsMoD5N4-9U9bh5XhQ-13" value="if&lt;div&gt;(i&amp;gt;j)&lt;/div&gt;" style="rhombus;whiteSpace=wrap;html=1;" vertex="1" parent="1">
          <mxGeometry x="190" y="760" width="150" height="80" as="geometry" />
        </mxCell>
        <mxCell id="5vqsMoD5N4-9U9bh5XhQ-19" style="edgeStyle=orthogonalEdgeStyle;rounded=0;orthogonalLoop=1;jettySize=auto;html=1;exitX=0.5;exitY=1;exitDx=0;exitDy=0;" edge="1" parent="1" source="Ci78ALk_LoohgUf3pwAm-16" target="5vqsMoD5N4-9U9bh5XhQ-13">
          <mxGeometry relative="1" as="geometry" />
        </mxCell>
        <mxCell id="5vqsMoD5N4-9U9bh5XhQ-41" style="edgeStyle=orthogonalEdgeStyle;rounded=0;orthogonalLoop=1;jettySize=auto;html=1;exitX=0.5;exitY=1;exitDx=0;exitDy=0;entryX=0.5;entryY=0;entryDx=0;entryDy=0;" edge="1" parent="1" source="5vqsMoD5N4-9U9bh5XhQ-21" target="5vqsMoD5N4-9U9bh5XhQ-40">
          <mxGeometry relative="1" as="geometry">
            <Array as="points">
              <mxPoint x="265" y="1250" />
            </Array>
          </mxGeometry>
        </mxCell>
        <mxCell id="5vqsMoD5N4-9U9bh5XhQ-44" style="edgeStyle=orthogonalEdgeStyle;rounded=0;orthogonalLoop=1;jettySize=auto;html=1;exitX=0.5;exitY=1;exitDx=0;exitDy=0;entryX=0.5;entryY=0;entryDx=0;entryDy=0;" edge="1" parent="1" source="5vqsMoD5N4-9U9bh5XhQ-21" target="5vqsMoD5N4-9U9bh5XhQ-43">
          <mxGeometry relative="1" as="geometry">
            <Array as="points">
              <mxPoint x="265" y="1280" />
              <mxPoint x="90" y="1280" />
            </Array>
          </mxGeometry>
        </mxCell>
        <mxCell id="5vqsMoD5N4-9U9bh5XhQ-21" value="break" style="rounded=1;whiteSpace=wrap;html=1;" vertex="1" parent="1">
          <mxGeometry x="205" y="850" width="120" height="60" as="geometry" />
        </mxCell>
        <mxCell id="5vqsMoD5N4-9U9bh5XhQ-29" style="edgeStyle=orthogonalEdgeStyle;rounded=0;orthogonalLoop=1;jettySize=auto;html=1;exitX=0.5;exitY=1;exitDx=0;exitDy=0;entryX=0.5;entryY=0;entryDx=0;entryDy=0;" edge="1" parent="1" source="5vqsMoD5N4-9U9bh5XhQ-24" target="5vqsMoD5N4-9U9bh5XhQ-25">
          <mxGeometry relative="1" as="geometry" />
        </mxCell>
        <mxCell id="5vqsMoD5N4-9U9bh5XhQ-24" value="if&lt;div&gt;i&amp;lt;j&lt;/div&gt;" style="rhombus;whiteSpace=wrap;html=1;" vertex="1" parent="1">
          <mxGeometry x="30" y="850" width="150" height="80" as="geometry" />
        </mxCell>
        <mxCell id="5vqsMoD5N4-9U9bh5XhQ-30" style="edgeStyle=orthogonalEdgeStyle;rounded=0;orthogonalLoop=1;jettySize=auto;html=1;exitX=0.5;exitY=1;exitDx=0;exitDy=0;entryX=0.5;entryY=0;entryDx=0;entryDy=0;" edge="1" parent="1" source="5vqsMoD5N4-9U9bh5XhQ-25" target="5vqsMoD5N4-9U9bh5XhQ-26">
          <mxGeometry relative="1" as="geometry" />
        </mxCell>
        <mxCell id="5vqsMoD5N4-9U9bh5XhQ-25" value="swich += 1" style="rounded=1;whiteSpace=wrap;html=1;" vertex="1" parent="1">
          <mxGeometry x="45" y="940" width="120" height="60" as="geometry" />
        </mxCell>
        <mxCell id="5vqsMoD5N4-9U9bh5XhQ-36" style="edgeStyle=orthogonalEdgeStyle;rounded=0;orthogonalLoop=1;jettySize=auto;html=1;exitX=0.5;exitY=1;exitDx=0;exitDy=0;entryX=0;entryY=0.5;entryDx=0;entryDy=0;" edge="1" parent="1" source="5vqsMoD5N4-9U9bh5XhQ-26" target="5vqsMoD5N4-9U9bh5XhQ-24">
          <mxGeometry relative="1" as="geometry" />
        </mxCell>
        <mxCell id="5vqsMoD5N4-9U9bh5XhQ-58" style="edgeStyle=orthogonalEdgeStyle;rounded=0;orthogonalLoop=1;jettySize=auto;html=1;exitX=0.5;exitY=1;exitDx=0;exitDy=0;entryX=0.5;entryY=0;entryDx=0;entryDy=0;" edge="1" parent="1" source="5vqsMoD5N4-9U9bh5XhQ-26" target="5vqsMoD5N4-9U9bh5XhQ-27">
          <mxGeometry relative="1" as="geometry" />
        </mxCell>
        <mxCell id="5vqsMoD5N4-9U9bh5XhQ-26" value="a[i],a[j] = a[j],a[i]" style="rounded=1;whiteSpace=wrap;html=1;" vertex="1" parent="1">
          <mxGeometry x="45" y="1010" width="120" height="60" as="geometry" />
        </mxCell>
        <mxCell id="5vqsMoD5N4-9U9bh5XhQ-59" style="edgeStyle=orthogonalEdgeStyle;rounded=0;orthogonalLoop=1;jettySize=auto;html=1;exitX=0.5;exitY=1;exitDx=0;exitDy=0;entryX=0.5;entryY=0;entryDx=0;entryDy=0;" edge="1" parent="1" source="5vqsMoD5N4-9U9bh5XhQ-27" target="5vqsMoD5N4-9U9bh5XhQ-37">
          <mxGeometry relative="1" as="geometry" />
        </mxCell>
        <mxCell id="5vqsMoD5N4-9U9bh5XhQ-27" value="i += 1" style="rounded=1;whiteSpace=wrap;html=1;" vertex="1" parent="1">
          <mxGeometry x="45" y="1100" width="120" height="60" as="geometry" />
        </mxCell>
        <mxCell id="5vqsMoD5N4-9U9bh5XhQ-32" value="True" style="text;html=1;align=center;verticalAlign=middle;resizable=0;points=[];autosize=1;strokeColor=none;fillColor=none;" vertex="1" parent="1">
          <mxGeometry x="45" y="828" width="50" height="30" as="geometry" />
        </mxCell>
        <mxCell id="5vqsMoD5N4-9U9bh5XhQ-33" value="False" style="text;html=1;align=center;verticalAlign=middle;resizable=0;points=[];autosize=1;strokeColor=none;fillColor=none;" vertex="1" parent="1">
          <mxGeometry x="155" y="768" width="50" height="30" as="geometry" />
        </mxCell>
        <mxCell id="5vqsMoD5N4-9U9bh5XhQ-38" style="edgeStyle=orthogonalEdgeStyle;rounded=0;orthogonalLoop=1;jettySize=auto;html=1;exitX=0.5;exitY=1;exitDx=0;exitDy=0;entryX=0;entryY=0.5;entryDx=0;entryDy=0;" edge="1" parent="1" source="5vqsMoD5N4-9U9bh5XhQ-37" target="Ci78ALk_LoohgUf3pwAm-17">
          <mxGeometry relative="1" as="geometry">
            <mxPoint y="820" as="targetPoint" />
            <Array as="points">
              <mxPoint x="105" y="1260" />
              <mxPoint x="-10" y="1260" />
              <mxPoint x="-10" y="800" />
            </Array>
          </mxGeometry>
        </mxCell>
        <mxCell id="5vqsMoD5N4-9U9bh5XhQ-37" value="j += 1" style="rounded=1;whiteSpace=wrap;html=1;" vertex="1" parent="1">
          <mxGeometry x="45" y="1180" width="120" height="60" as="geometry" />
        </mxCell>
        <mxCell id="5vqsMoD5N4-9U9bh5XhQ-50" style="edgeStyle=orthogonalEdgeStyle;rounded=0;orthogonalLoop=1;jettySize=auto;html=1;exitX=0.5;exitY=1;exitDx=0;exitDy=0;entryX=0.5;entryY=0;entryDx=0;entryDy=0;" edge="1" parent="1" source="5vqsMoD5N4-9U9bh5XhQ-40" target="5vqsMoD5N4-9U9bh5XhQ-42">
          <mxGeometry relative="1" as="geometry" />
        </mxCell>
        <mxCell id="5vqsMoD5N4-9U9bh5XhQ-54" style="edgeStyle=orthogonalEdgeStyle;rounded=0;orthogonalLoop=1;jettySize=auto;html=1;exitX=0;exitY=0.5;exitDx=0;exitDy=0;" edge="1" parent="1" source="5vqsMoD5N4-9U9bh5XhQ-40">
          <mxGeometry relative="1" as="geometry">
            <mxPoint x="170" y="1510" as="targetPoint" />
          </mxGeometry>
        </mxCell>
        <mxCell id="5vqsMoD5N4-9U9bh5XhQ-40" value="if&lt;div&gt;left &amp;lt; j&lt;/div&gt;" style="rhombus;whiteSpace=wrap;html=1;" vertex="1" parent="1">
          <mxGeometry x="190" y="1300" width="150" height="80" as="geometry" />
        </mxCell>
        <mxCell id="5vqsMoD5N4-9U9bh5XhQ-47" style="edgeStyle=orthogonalEdgeStyle;rounded=0;orthogonalLoop=1;jettySize=auto;html=1;exitX=0.5;exitY=1;exitDx=0;exitDy=0;entryX=1;entryY=0.5;entryDx=0;entryDy=0;" edge="1" parent="1" source="5vqsMoD5N4-9U9bh5XhQ-42" target="5vqsMoD5N4-9U9bh5XhQ-40">
          <mxGeometry relative="1" as="geometry">
            <Array as="points">
              <mxPoint x="265" y="1470" />
              <mxPoint x="360" y="1470" />
              <mxPoint x="360" y="1340" />
            </Array>
          </mxGeometry>
        </mxCell>
        <mxCell id="5vqsMoD5N4-9U9bh5XhQ-42" value="quicksort(a,left,j)" style="rounded=1;whiteSpace=wrap;html=1;" vertex="1" parent="1">
          <mxGeometry x="205" y="1390" width="120" height="60" as="geometry" />
        </mxCell>
        <mxCell id="5vqsMoD5N4-9U9bh5XhQ-49" style="edgeStyle=orthogonalEdgeStyle;rounded=0;orthogonalLoop=1;jettySize=auto;html=1;exitX=0.5;exitY=1;exitDx=0;exitDy=0;" edge="1" parent="1" source="5vqsMoD5N4-9U9bh5XhQ-43" target="5vqsMoD5N4-9U9bh5XhQ-45">
          <mxGeometry relative="1" as="geometry" />
        </mxCell>
        <mxCell id="5vqsMoD5N4-9U9bh5XhQ-53" style="edgeStyle=orthogonalEdgeStyle;rounded=0;orthogonalLoop=1;jettySize=auto;html=1;exitX=1;exitY=0.5;exitDx=0;exitDy=0;entryX=0.5;entryY=0;entryDx=0;entryDy=0;" edge="1" parent="1" source="5vqsMoD5N4-9U9bh5XhQ-43" target="5vqsMoD5N4-9U9bh5XhQ-46">
          <mxGeometry relative="1" as="geometry">
            <Array as="points">
              <mxPoint x="185" y="1340" />
              <mxPoint x="185" y="1510" />
            </Array>
          </mxGeometry>
        </mxCell>
        <mxCell id="5vqsMoD5N4-9U9bh5XhQ-43" value="if&lt;div&gt;i &amp;lt; right&lt;/div&gt;" style="rhombus;whiteSpace=wrap;html=1;" vertex="1" parent="1">
          <mxGeometry x="15" y="1300" width="150" height="80" as="geometry" />
        </mxCell>
        <mxCell id="5vqsMoD5N4-9U9bh5XhQ-48" style="edgeStyle=orthogonalEdgeStyle;rounded=0;orthogonalLoop=1;jettySize=auto;html=1;exitX=0.5;exitY=1;exitDx=0;exitDy=0;entryX=0;entryY=0.5;entryDx=0;entryDy=0;" edge="1" parent="1" source="5vqsMoD5N4-9U9bh5XhQ-45" target="5vqsMoD5N4-9U9bh5XhQ-43">
          <mxGeometry relative="1" as="geometry" />
        </mxCell>
        <mxCell id="5vqsMoD5N4-9U9bh5XhQ-45" value="quicksort(a,i,right)" style="rounded=1;whiteSpace=wrap;html=1;" vertex="1" parent="1">
          <mxGeometry x="35" y="1390" width="120" height="60" as="geometry" />
        </mxCell>
        <mxCell id="5vqsMoD5N4-9U9bh5XhQ-46" value="return a" style="rounded=1;whiteSpace=wrap;html=1;" vertex="1" parent="1">
          <mxGeometry x="115" y="1510" width="120" height="60" as="geometry" />
        </mxCell>
        <mxCell id="5vqsMoD5N4-9U9bh5XhQ-51" value="True" style="text;html=1;align=center;verticalAlign=middle;resizable=0;points=[];autosize=1;strokeColor=none;fillColor=none;" vertex="1" parent="1">
          <mxGeometry x="195" y="1358" width="50" height="30" as="geometry" />
        </mxCell>
        <mxCell id="5vqsMoD5N4-9U9bh5XhQ-52" value="True" style="text;html=1;align=center;verticalAlign=middle;resizable=0;points=[];autosize=1;strokeColor=none;fillColor=none;" vertex="1" parent="1">
          <mxGeometry x="115" y="1358" width="50" height="30" as="geometry" />
        </mxCell>
        <mxCell id="5vqsMoD5N4-9U9bh5XhQ-55" value="False" style="text;html=1;align=center;verticalAlign=middle;resizable=0;points=[];autosize=1;strokeColor=none;fillColor=none;" vertex="1" parent="1">
          <mxGeometry x="145" y="1298" width="50" height="30" as="geometry" />
        </mxCell>
      </root>
    </mxGraphModel>
  </diagram>
</mxfile>
